<svg width="430" height="287" viewBox="0 0 430 287" fill="none"
  xmlns="http://www.w3.org/2000/svg">
  <g clip-path="url(#clip0_8_2)">
    <path d="M419.019 277.221L414.772 279.029L405.771 263.515L412.039 260.845L419.019 277.221Z" fill="#FFB6B6"/>
    <path d="M383.927 281.238L379.311 281.238L377.115 263.438H383.928L383.927 281.238Z" fill="#FFB6B6"/>
    <path d="M384.089 286.052L369.894 286.052V285.872C369.894 284.407 370.477 283.002 371.513 281.966C372.549 280.931 373.954 280.349 375.419 280.349H375.42L378.013 278.382L382.85 280.349L384.089 280.349L384.089 286.052Z" fill="#2F2E41"/>
    <path d="M421.601 280.302L408.543 285.866L408.472 285.701C407.898 284.353 407.882 282.832 408.429 281.473C408.976 280.114 410.041 279.028 411.389 278.454L411.389 278.454L413.003 275.628L418.225 275.541L419.365 275.056L421.601 280.302Z" fill="#2F2E41"/>
    <path d="M379.399 175.89L372.383 218.597L374.292 224.961L371.787 229.468L375.466 269.051L373.973 272.338L378.145 274.91H386.636L387.087 239.076L389.184 233.814V230.915L393.454 209.063L394.24 234.059L395.482 239.328L394.438 243.08L395.802 245.709L407.483 270.786H417.004L416.268 265.115C417.974 264.251 413.707 261.728 413.297 259.861L414.699 256.707L413.297 250.751L412.011 239.112L413.367 214.543L412.729 181.459C409.532 177.174 405.986 173.87 401.591 172.944L379.399 175.89Z" fill="#2F2E41"/>
    <path d="M396.483 119.649C401.797 119.649 406.105 115.342 406.105 110.03C406.105 104.717 401.797 100.411 396.483 100.411C391.169 100.411 386.862 104.717 386.862 110.03C386.862 115.342 391.169 119.649 396.483 119.649Z" fill="#FFB6B6"/>
    <path d="M356.814 185.981C356.694 185.44 356.694 184.88 356.814 184.34C356.934 183.8 357.171 183.293 357.508 182.854C357.846 182.415 358.275 182.056 358.766 181.801C359.258 181.546 359.799 181.402 360.352 181.379L364.228 168.497L368.709 173.863L364.341 185.273C364.318 186.204 363.955 187.095 363.319 187.776C362.683 188.458 361.82 188.882 360.892 188.969C359.964 189.056 359.036 188.8 358.285 188.249C357.533 187.699 357.01 186.891 356.814 185.981Z" fill="#FFB6B6"/>
    <path d="M381.956 133.034L380.219 129.861L377.981 130.608C377.981 130.608 375.51 132.202 372.05 138.22C370.45 141.003 366.991 158.851 366.991 158.851L358.905 180.255L367.148 181.648L374.026 164.009L382 147.128L381.956 133.034Z" fill="#6C63FF"/>
    <path d="M396.126 175.756C402.901 175.756 409.736 177.089 412.535 181.856C412.462 180.819 412.279 179.022 412.088 177.373L411.388 172.942L412.097 168.88L413.035 167.942L411.355 166.263L412.501 157.783L416.284 137.806C416.581 136.234 416.349 134.609 415.626 133.182C414.903 131.756 413.729 130.608 412.286 129.918L408.651 128.17L402.76 122.707L392.103 122.627L388.626 127.146L379.473 130.254L381.009 162.028L380.002 164.377C380.228 164.585 380.704 165.027 380.962 165.313C381.327 165.716 380.862 167.793 380.553 168.996L380.127 172.199L381.467 173.155L379.726 175.211L379.378 177.82C381.106 177.412 388.579 175.756 396.126 175.756Z" fill="#6C63FF"/>
    <path d="M398.944 119.179C398.986 119.088 399.027 118.997 399.068 118.905C399.052 118.906 399.037 118.908 399.021 118.909L398.944 119.179Z" fill="#2F2E41"/>
    <path d="M406.372 100.848C405.915 100.417 405.321 100.161 404.695 100.123C404.072 100.143 403.441 100.705 403.57 101.314C402.428 99.2909 400.609 97.7351 398.433 96.9194C396.257 96.1037 393.863 96.0803 391.672 96.8533C390.125 97.3987 388.609 98.4899 388.254 100.09C388.219 100.51 388.094 100.918 387.886 101.285C387.707 101.481 387.473 101.621 387.215 101.686C386.957 101.751 386.686 101.74 386.434 101.653L386.419 101.648C386.333 101.619 386.24 101.616 386.152 101.64C386.064 101.664 385.986 101.714 385.927 101.783C385.867 101.852 385.83 101.937 385.82 102.028C385.81 102.118 385.827 102.21 385.87 102.29L386.307 103.106C385.756 103.229 385.183 103.217 384.637 103.07C384.546 103.047 384.45 103.051 384.362 103.084C384.275 103.117 384.199 103.176 384.146 103.254C384.093 103.331 384.066 103.423 384.067 103.517C384.069 103.61 384.099 103.701 384.154 103.777C384.882 104.772 385.831 105.583 386.927 106.146C388.023 106.709 389.235 107.009 390.467 107.021C392.215 107.01 393.981 106.408 395.683 106.81C396.341 106.965 396.956 107.266 397.483 107.69C398.009 108.114 398.435 108.651 398.727 109.261C399.019 109.87 399.171 110.538 399.172 111.214C399.172 111.89 399.021 112.558 398.73 113.168C399.253 112.597 400.263 112.732 400.798 113.292C401.044 113.592 401.226 113.94 401.332 114.313C401.439 114.686 401.468 115.077 401.417 115.462C401.274 116.64 400.924 117.784 400.383 118.84C402.451 118.777 404.449 118.08 406.107 116.845C407.766 115.61 409.006 113.896 409.659 111.934C410.312 109.972 410.347 107.857 409.759 105.874C409.171 103.892 407.989 102.138 406.372 100.848H406.372Z" fill="#2F2E41"/>
    <path d="M95.419 64.9354C108.63 64.9354 119.34 54.2285 119.34 41.0209C119.34 27.8133 108.63 17.1064 95.419 17.1064C82.2079 17.1064 71.4982 27.8133 71.4982 41.0209C71.4982 54.2285 82.2079 64.9354 95.419 64.9354Z" fill="#6C63FF"/>
    <path d="M28.1873 112.159C16.1846 85.6174 16.6272 51.9741 35.2549 29.5768C41.4869 60.6343 58.5065 88.487 83.3023 108.207C92.8925 115.778 104.348 123.2 106.968 135.132C108.598 142.556 106.287 150.409 102.292 156.877C98.2973 163.344 92.7288 168.665 87.2235 173.908L86.6059 175.702C62.6509 159.121 40.1899 138.701 28.1873 112.159Z" fill="#F2F2F2"/>
    <path d="M35.7733 29.9006C31.4864 53.3689 34.6711 78.3583 45.091 99.8597C47.3438 104.508 50.0337 109.028 53.6351 112.766C57.2381 116.507 61.5461 118.861 66.5018 120.308C71.0323 121.63 75.8197 122.459 79.9498 124.859C84.3032 127.389 87.0048 131.635 88.0573 136.503C89.345 142.46 88.4149 148.524 87.2993 154.423C86.0606 160.972 84.6702 167.755 86.4652 174.339C86.6827 175.136 85.4318 175.427 85.2147 174.631C82.0917 163.176 88.1636 151.879 87.3148 140.362C86.9188 134.989 84.9005 129.702 80.2917 126.588C76.2615 123.866 71.3254 123.007 66.7266 121.708C61.8977 120.344 57.5611 118.26 53.8709 114.803C50.0961 111.266 47.2237 106.842 44.862 102.272C39.5357 91.9641 36.0245 80.6074 34.1668 69.1732C32.0307 56.0311 32.159 42.6206 34.5462 29.5217C34.6943 28.7111 35.9205 29.0953 35.7733 29.9006H35.7733Z" fill="white"/>
    <path d="M41.3353 93.0494C37.4468 94.2952 33.2419 94.1187 29.4716 92.5513C25.7013 90.9838 22.611 88.1276 20.7527 84.4926C20.3792 83.7558 21.5069 83.141 21.8809 83.8787C23.6051 87.2668 26.4839 89.9272 29.9978 91.3796C33.5117 92.832 37.4292 92.9808 41.0433 91.7992C41.8289 91.5433 42.1164 92.795 41.3353 93.0494H41.3353Z" fill="white"/>
    <path d="M64.1163 119.94C68.0019 112.554 68.9602 103.976 66.8003 95.9151C66.5856 95.1166 67.8364 94.8257 68.0508 95.6232C70.2828 104.016 69.2673 112.941 65.207 120.617C64.8195 121.349 63.7309 120.667 64.1163 119.94H64.1163Z" fill="white"/>
    <path d="M33.6815 56.4481C35.2865 56.2795 36.8245 55.715 38.1573 54.8052C39.4902 53.8955 40.5762 52.669 41.3177 51.236C41.6958 50.5 42.784 51.1824 42.4084 51.9136C41.5818 53.493 40.3808 54.8461 38.9104 55.8545C37.44 56.8628 35.745 57.4959 33.9735 57.6983C33.8081 57.7314 33.6363 57.7002 33.4931 57.6113C33.3498 57.5223 33.2458 57.3821 33.2022 57.2192C33.1644 57.0535 33.1935 56.8795 33.2832 56.7351C33.373 56.5908 33.5161 56.4876 33.6815 56.4481V56.4481Z" fill="white"/>
    <path d="M133.904 29.8368C133.681 30.303 133.458 30.7693 133.24 31.2451C130.274 37.5294 127.825 44.0442 125.914 50.7251C125.759 51.2393 125.608 51.7628 125.468 52.2804C121.037 68.4253 119.644 85.2522 121.358 101.906C122.046 108.532 123.238 115.096 124.922 121.542C127.249 130.443 130.48 139.909 129.751 148.797C129.685 149.726 129.562 150.649 129.382 151.562L88.8433 176.316C88.7229 176.326 88.6077 176.346 88.4869 176.356L86.9135 177.418C86.8034 177.092 86.6962 176.751 86.5861 176.425C86.5215 176.236 86.4659 176.041 86.4012 175.852C86.361 175.724 86.3212 175.596 86.2775 175.483C86.264 175.441 86.2509 175.398 86.243 175.365C86.1993 175.252 86.1708 175.142 86.1329 175.038C85.5286 173.135 84.9366 171.224 84.3569 169.305C84.3513 169.296 84.3513 169.296 84.3547 169.281C79.9754 154.65 76.7795 139.525 75.9814 124.396C75.9575 123.941 75.9276 123.477 75.9222 123.01C75.6004 116.189 75.8367 109.352 76.6289 102.569C77.0746 98.8565 77.708 95.1687 78.5268 91.52C80.6604 82.0963 84.2633 73.0668 89.2036 64.7625C99.0544 48.2093 114.091 34.9901 132.494 30.1897C132.965 30.0673 133.427 29.95 133.904 29.8368Z" fill="#F2F2F2"/>
    <path d="M134.127 30.4068C116.571 46.5645 104.064 68.4341 99.435 91.8736C98.4342 96.9411 97.8602 102.169 98.4842 107.322C99.1084 112.477 101.13 116.95 104.216 121.088C107.037 124.871 110.36 128.414 112.213 132.816C114.165 137.457 113.765 142.472 111.673 146.993C109.114 152.524 104.72 156.806 100.277 160.845C95.3434 165.328 90.1484 169.907 87.6166 176.244C87.3099 177.012 86.1361 176.492 86.4424 175.725C90.8471 164.699 102.499 159.334 108.757 149.628C111.677 145.099 113.249 139.663 111.444 134.402C109.866 129.803 106.442 126.146 103.552 122.341C100.518 118.345 98.3107 114.071 97.4462 109.089C96.5619 103.994 96.9327 98.7326 97.7995 93.6617C99.7543 82.2256 103.79 71.0445 109.193 60.7968C115.402 49.0178 123.58 38.3874 133.375 29.3656C133.981 28.8075 134.729 29.8523 134.127 30.4068L134.127 30.4068Z" fill="white"/>
    <path d="M100.538 84.1753C96.6826 82.8295 93.4316 80.1576 91.3651 76.6367C89.2987 73.1158 88.5514 68.9752 89.2568 64.9543C89.4023 64.1412 90.673 64.3291 90.5273 65.1433C89.8635 68.8863 90.56 72.7432 92.491 76.018C94.4219 79.2927 97.4602 81.7695 101.057 83.0014C101.839 83.27 101.315 84.4424 100.538 84.1753H100.538Z" fill="white"/>
    <path d="M102.533 119.358C110.083 115.8 116.014 109.527 119.144 101.791C119.454 101.024 120.627 101.545 120.318 102.311C117.046 110.355 110.861 116.87 102.996 120.556C102.246 120.906 101.787 119.707 102.533 119.358L102.533 119.358Z" fill="white"/>
    <path d="M116.469 50.3444C117.852 51.1758 119.42 51.6508 121.032 51.7267C122.644 51.8026 124.25 51.477 125.705 50.7791C126.45 50.4191 126.908 51.6189 126.168 51.9767C124.556 52.7402 122.783 53.0976 121.001 53.0177C119.22 52.9378 117.485 52.423 115.949 51.5183C115.797 51.4452 115.679 51.3169 115.618 51.1597C115.557 51.0024 115.559 50.8279 115.622 50.6716C115.691 50.5165 115.819 50.3951 115.978 50.3338C116.137 50.2726 116.313 50.2764 116.469 50.3444V50.3444Z" fill="white"/>
    <path d="M229.873 83.0869C217.87 56.5448 218.312 22.9015 236.94 0.504228C243.172 31.5617 260.192 59.4145 284.988 79.1345C294.578 86.705 306.033 94.127 308.653 106.059C310.283 113.484 307.972 121.337 303.978 127.804C299.983 134.272 294.414 139.592 288.909 144.835L288.291 146.629C264.336 130.048 241.875 109.629 229.873 83.0869Z" fill="#F2F2F2"/>
    <path d="M237.459 0.828069C233.172 24.2963 236.356 49.2858 246.776 70.7871C249.029 75.4357 251.719 79.9552 255.32 83.6939C258.923 87.4343 263.231 89.7889 268.187 91.2354C272.718 92.5579 277.505 93.3861 281.635 95.7865C285.988 98.3166 288.69 102.562 289.743 107.431C291.03 113.387 290.1 119.452 288.985 125.35C287.746 131.899 286.355 138.682 288.15 145.266C288.368 146.064 287.117 146.355 286.9 145.558C283.777 134.104 289.849 122.806 289 111.29C288.604 105.916 286.586 100.629 281.977 97.5156C277.947 94.793 273.011 93.9347 268.412 92.6354C263.583 91.271 259.246 89.187 255.556 85.7301C251.781 82.1938 248.909 77.7698 246.547 73.1993C241.221 62.8915 237.71 51.5348 235.852 40.1006C233.716 26.9586 233.844 13.548 236.231 0.449189C236.38 -0.361485 237.606 0.0227127 237.459 0.828069H237.459Z" fill="white"/>
    <path d="M243.021 63.9768C239.132 65.2227 234.927 65.0462 231.157 63.4787C227.387 61.9113 224.296 59.055 222.438 55.42C222.064 54.6832 223.192 54.0684 223.566 54.8062C225.29 58.1943 228.169 60.8546 231.683 62.307C235.197 63.7595 239.115 63.9083 242.729 62.7266C243.514 62.4708 243.802 63.7224 243.021 63.9768V63.9768Z" fill="white"/>
    <path d="M265.802 90.8674C269.687 83.4817 270.645 74.9032 268.486 66.8425C268.271 66.0441 269.522 65.7531 269.736 66.5506C271.968 74.943 270.953 83.8681 266.892 91.5449C266.505 92.2764 265.416 91.5948 265.802 90.8674H265.802Z" fill="white"/>
    <path d="M235.367 27.3756C236.972 27.2069 238.51 26.6424 239.843 25.7327C241.176 24.8229 242.261 23.5965 243.003 22.1635C243.381 21.4275 244.469 22.1098 244.094 22.8411C243.267 24.4205 242.066 25.7735 240.596 26.7819C239.125 27.7903 237.43 28.4233 235.659 28.6258C235.493 28.6588 235.322 28.6277 235.178 28.5387C235.035 28.4497 234.931 28.3095 234.888 28.1466C234.85 27.9809 234.879 27.807 234.969 27.6626C235.058 27.5182 235.201 27.4151 235.367 27.3756V27.3756Z" fill="white"/>
    <path d="M335.589 0.764206C335.366 1.23048 335.143 1.69676 334.925 2.17257C331.96 8.45688 329.51 14.9716 327.6 21.6526C327.444 22.1668 327.294 22.6902 327.153 23.2078C322.723 39.3528 321.329 56.1797 323.043 72.8332C323.731 79.4594 324.923 86.0236 326.607 92.4691C328.934 101.37 332.165 110.837 331.436 119.725C331.37 120.653 331.247 121.576 331.067 122.489L290.529 147.244C290.408 147.254 290.293 147.273 290.172 147.283L288.599 148.346C288.489 148.019 288.381 147.679 288.271 147.352C288.207 147.163 288.151 146.969 288.086 146.78C288.046 146.652 288.006 146.524 287.963 146.411C287.949 146.368 287.936 146.325 287.928 146.292C287.885 146.179 287.856 146.07 287.818 145.966C287.214 144.062 286.622 142.151 286.042 140.232C286.037 140.223 286.037 140.223 286.04 140.208C281.661 125.577 278.465 110.452 277.667 95.3234C277.643 94.8682 277.613 94.404 277.607 93.9375C277.286 87.1161 277.522 80.2797 278.314 73.4967C278.76 69.784 279.393 66.0962 280.212 62.4474C282.346 53.0238 285.949 43.9943 290.889 35.6899C300.74 19.1368 315.776 5.91757 334.179 1.11716C334.65 0.994703 335.112 0.877416 335.589 0.764206Z" fill="#F0F0F0"/>
    <path d="M335.812 1.33424C318.256 17.492 305.749 39.3616 301.12 62.801C300.12 67.8686 299.545 73.0963 300.169 78.2492C300.794 83.4044 302.815 87.8773 305.901 92.0152C308.722 95.7981 312.046 99.341 313.898 103.744C315.85 108.384 315.45 113.4 313.359 117.921C310.8 123.452 306.405 127.734 301.962 131.772C297.029 136.256 291.834 140.835 289.302 147.172C288.995 147.94 287.821 147.419 288.128 146.652C292.532 135.627 304.184 130.261 310.442 120.555C313.362 116.026 314.934 110.59 313.129 105.33C311.551 100.73 308.127 97.0739 305.237 93.2683C302.204 89.2724 299.996 84.9982 299.132 80.0168C298.247 74.9212 298.618 69.6601 299.485 64.5892C301.44 53.153 305.475 41.9719 310.878 31.7242C317.087 19.9452 325.266 9.31488 335.06 0.293089C335.667 -0.265052 336.414 0.77976 335.812 1.33425L335.812 1.33424Z" fill="white"/>
    <path d="M302.223 55.1028C298.368 53.757 295.117 51.0851 293.05 47.5642C290.984 44.0433 290.237 39.9027 290.942 35.8818C291.088 35.0687 292.358 35.2566 292.212 36.0707C291.549 39.8138 292.245 43.6707 294.176 46.9454C296.107 50.2201 299.145 52.697 302.743 53.9288C303.524 54.1974 303 55.3698 302.223 55.1028H302.223Z" fill="white"/>
    <path d="M304.218 90.2855C311.768 86.7272 317.7 80.4547 320.829 72.7185C321.139 71.9518 322.313 72.4723 322.004 73.2381C318.732 81.2824 312.546 87.7975 304.681 91.483C303.931 91.8338 303.472 90.6344 304.218 90.2855L304.218 90.2855Z" fill="white"/>
    <path d="M318.154 21.2718C319.537 22.1033 321.105 22.5783 322.717 22.6541C324.329 22.73 325.935 22.4044 327.39 21.7066C328.135 21.3465 328.593 22.5464 327.853 22.9041C326.242 23.6676 324.468 24.0251 322.687 23.9452C320.905 23.8653 319.171 23.3505 317.634 22.4458C317.482 22.3726 317.364 22.2444 317.303 22.0871C317.242 21.9298 317.244 21.7553 317.307 21.599C317.377 21.4439 317.505 21.3226 317.663 21.2613C317.822 21.2 317.998 21.2038 318.154 21.2718Z" fill="white"/>
    <path d="M76.8922 279.932L81.323 283.362L98.5502 286.351L117.698 238.765C117.698 238.765 129.424 202.092 162.257 209.595L267.79 207.719C267.79 207.719 300.192 204.399 305.547 219.676C306.561 222.57 333.924 286.496 333.924 286.496L353.108 283.789L350.809 229.289L305.244 123.549L226.045 118.606L144.433 124.253L76.8922 279.932Z" fill="#3F3D56"/>
    <path d="M164.602 212.877C181.439 212.877 195.089 199.231 195.089 182.398C195.089 165.565 181.439 151.919 164.602 151.919C147.764 151.919 134.114 165.565 134.114 182.398C134.114 199.231 147.764 212.877 164.602 212.877Z" fill="#2F2E41"/>
    <path d="M266.852 212.877C283.689 212.877 297.339 199.231 297.339 182.398C297.339 165.565 283.689 151.919 266.852 151.919C250.014 151.919 236.364 165.565 236.364 182.398C236.364 199.231 250.014 212.877 266.852 212.877Z" fill="#2F2E41"/>
    <path d="M128.955 82.5196L141.508 80.0588C141.508 80.0588 236.021 66.5766 295.76 82.5196L291.241 95.1803L133.176 94.2424L128.955 82.5196Z" fill="#E6E6E6"/>
    <path d="M256.387 147.933H176.178C166.439 147.933 158.022 141.191 156.164 131.902L147.386 88.0104C147.192 87.0525 147.2 86.0647 147.409 85.11C147.618 84.1554 148.024 83.2548 148.601 82.4658C149.205 81.6381 149.972 80.9432 150.855 80.4244C151.739 79.9056 152.719 79.5738 153.736 79.4497C196.04 74.2001 237.929 74.1912 278.242 79.4225C279.245 79.5453 280.212 79.873 281.082 80.3854C281.953 80.8978 282.709 81.5838 283.303 82.4008C283.876 83.1784 284.283 84.0656 284.499 85.0072C284.714 85.9488 284.734 86.9247 284.556 87.8741L276.453 131.632C274.704 141.077 266.265 147.933 256.387 147.933Z" fill="#6C63FF"/>
    <path d="M93.2754 89.6655L93.6246 83.3844C93.6791 82.4059 93.9699 81.4551 94.4722 80.6135C94.9744 79.7719 95.6732 79.0644 96.5087 78.5518C101.573 75.4457 115.234 68.6071 132.668 72.1919C133.892 72.4452 135.008 73.0693 135.865 73.9792C136.722 74.8892 137.278 76.0409 137.458 77.2778L137.924 80.546L93.2754 89.6655Z" fill="#3F3D56"/>
    <path d="M339.116 89.6655L294.467 80.546L295.217 75.2955C295.303 74.6755 295.573 74.0955 295.992 73.6301C296.411 73.1647 296.96 72.8352 297.567 72.684C317.672 67.6397 333.062 76.5976 337.3 79.4633C337.702 79.7363 338.036 80.098 338.276 80.5206C338.516 80.9431 338.656 81.4152 338.684 81.9003L339.116 89.6655Z" fill="#3F3D56"/>
    <path d="M79.0988 284.028C78.0228 284.039 76.9661 283.742 76.0539 283.171C64.0988 276.192 56.6455 263.402 53.9181 245.168C51.6652 230.106 52.606 211.201 56.7142 188.977C63.9978 149.576 79.2634 110.192 85.4887 95.0885C86.3134 93.0949 87.5949 91.3229 89.2301 89.9151C90.8652 88.5074 92.8082 87.5033 94.9026 86.9837C107.736 83.8279 130.14 78.5339 135.991 78.5339C144.009 78.5339 148.347 86.0798 148.39 86.156L148.414 86.2183L155.456 116.745V117.185C159.34 130.325 156.454 139.817 153.346 145.467C149.973 151.599 145.609 154.66 145.566 154.69C138.713 159.906 127.548 176.709 116.436 198.535C104.889 221.217 96.3292 243.598 93.5388 258.405C90.1234 276.528 85.1167 282.077 81.5181 283.539C80.7512 283.858 79.9293 284.024 79.0988 284.028V284.028Z" fill="#E6E6E6"/>
    <path d="M253.743 144.182H177.956C173.483 144.175 169.151 142.617 165.7 139.772C162.248 136.928 159.892 132.973 159.033 128.585L150.739 85.8966C150.555 84.9517 150.566 83.9791 150.773 83.0388C150.979 82.0985 151.376 81.2105 151.94 80.4297C152.503 79.6489 153.22 78.9918 154.048 78.499C154.875 78.0063 155.794 77.6883 156.749 77.5647C196.722 72.4591 236.304 72.4504 274.395 77.5381C275.337 77.6663 276.243 77.9837 277.058 78.4713C277.874 78.9589 278.582 79.6066 279.141 80.3753C279.699 81.1439 280.096 82.0177 280.307 82.9439C280.519 83.8701 280.541 84.8295 280.371 85.7643L272.715 128.321C271.918 132.771 269.58 136.798 266.112 139.698C262.643 142.597 258.264 144.185 253.743 144.182V144.182Z" fill="#E6E6E6"/>
    <path d="M353.294 284.028C352.463 284.024 351.641 283.858 350.873 283.539C347.275 282.077 342.268 276.528 338.853 258.405C336.062 243.598 327.502 221.217 315.955 198.535C304.844 176.709 293.679 159.906 286.817 154.684C286.782 154.66 282.418 151.599 279.045 145.467C275.937 139.817 273.051 130.325 276.936 117.185L276.942 116.692L283.985 86.1853L284.001 86.156C284.044 86.0798 288.383 78.5339 296.401 78.5339C302.252 78.5339 324.655 83.8279 337.489 86.9837C339.583 87.5034 341.526 88.5076 343.161 89.9153C344.796 91.323 346.078 93.095 346.903 95.0885V95.0885C353.128 110.192 368.394 149.576 375.677 188.977C379.785 211.201 380.726 230.106 378.473 245.168C375.746 263.402 368.293 276.192 356.321 283.182C355.413 283.747 354.363 284.041 353.294 284.028V284.028Z" fill="#E6E6E6"/>
    <path d="M164.602 195.527C174.704 195.527 182.894 187.34 182.894 177.24C182.894 167.14 174.704 158.952 164.602 158.952C154.499 158.952 146.309 167.14 146.309 177.24C146.309 187.34 154.499 195.527 164.602 195.527Z" fill="#3F3D56"/>
    <path d="M164.602 189.432C171.337 189.432 176.797 183.973 176.797 177.24C176.797 170.507 171.337 165.048 164.602 165.048C157.867 165.048 152.407 170.507 152.407 177.24C152.407 183.973 157.867 189.432 164.602 189.432Z" fill="#2F2E41"/>
    <path d="M266.852 195.527C276.954 195.527 285.144 187.34 285.144 177.24C285.144 167.14 276.954 158.952 266.852 158.952C256.749 158.952 248.559 167.14 248.559 177.24C248.559 187.34 256.749 195.527 266.852 195.527Z" fill="#3F3D56"/>
    <path d="M266.852 189.432C273.587 189.432 279.046 183.973 279.046 177.24C279.046 170.507 273.587 165.048 266.852 165.048C260.116 165.048 254.657 170.507 254.657 177.24C254.657 183.973 260.116 189.432 266.852 189.432Z" fill="#2F2E41"/>
    <path d="M204.47 155.201C205.247 155.201 205.877 154.571 205.877 153.794C205.877 153.017 205.247 152.388 204.47 152.388C203.693 152.388 203.063 153.017 203.063 153.794C203.063 154.571 203.693 155.201 204.47 155.201Z" fill="#2F2E41"/>
    <path d="M210.567 155.201C211.344 155.201 211.974 154.571 211.974 153.794C211.974 153.017 211.344 152.388 210.567 152.388C209.79 152.388 209.16 153.017 209.16 153.794C209.16 154.571 209.79 155.201 210.567 155.201Z" fill="#2F2E41"/>
    <path d="M207.753 160.359C208.53 160.359 209.16 159.729 209.16 158.952C209.16 158.175 208.53 157.546 207.753 157.546C206.976 157.546 206.346 158.175 206.346 158.952C206.346 159.729 206.976 160.359 207.753 160.359Z" fill="#2F2E41"/>
    <path d="M213.381 160.359C214.159 160.359 214.789 159.729 214.789 158.952C214.789 158.175 214.159 157.546 213.381 157.546C212.604 157.546 211.974 158.175 211.974 158.952C211.974 159.729 212.604 160.359 213.381 160.359Z" fill="#2F2E41"/>
    <path d="M219.01 160.359C219.787 160.359 220.417 159.729 220.417 158.952C220.417 158.175 219.787 157.546 219.01 157.546C218.233 157.546 217.603 158.175 217.603 158.952C217.603 159.729 218.233 160.359 219.01 160.359Z" fill="#2F2E41"/>
    <path d="M224.638 160.359C225.415 160.359 226.045 159.729 226.045 158.952C226.045 158.175 225.415 157.546 224.638 157.546C223.861 157.546 223.231 158.175 223.231 158.952C223.231 159.729 223.861 160.359 224.638 160.359Z" fill="#2F2E41"/>
    <path d="M216.665 155.201C217.442 155.201 218.072 154.571 218.072 153.794C218.072 153.017 217.442 152.388 216.665 152.388C215.888 152.388 215.258 153.017 215.258 153.794C215.258 154.571 215.888 155.201 216.665 155.201Z" fill="#2F2E41"/>
    <path d="M222.762 155.201C223.539 155.201 224.169 154.571 224.169 153.794C224.169 153.017 223.539 152.388 222.762 152.388C221.985 152.388 221.355 153.017 221.355 153.794C221.355 154.571 221.985 155.201 222.762 155.201Z" fill="#2F2E41"/>
    <path d="M228.86 155.201C229.637 155.201 230.267 154.571 230.267 153.794C230.267 153.017 229.637 152.388 228.86 152.388C228.082 152.388 227.453 153.017 227.453 153.794C227.453 154.571 228.082 155.201 228.86 155.201Z" fill="#2F2E41"/>
    <path d="M222.293 197.169H210.098C209.538 197.169 209.002 196.946 208.606 196.551C208.21 196.155 207.988 195.618 207.988 195.059C207.988 194.499 208.21 193.962 208.606 193.566C209.002 193.171 209.538 192.948 210.098 192.948H222.293C222.853 192.948 223.39 193.171 223.786 193.566C224.181 193.962 224.404 194.499 224.404 195.059C224.404 195.618 224.181 196.155 223.786 196.551C223.39 196.946 222.853 197.169 222.293 197.169Z" fill="#2F2E41"/>
    <path d="M141.546 105.443C140.759 105.441 139.995 105.174 139.379 104.684C138.762 104.195 138.329 103.513 138.148 102.747L136.278 94.8091C136.066 93.9068 136.222 92.9575 136.71 92.1696C137.198 91.3818 137.979 90.8199 138.881 90.6074C139.783 90.3949 140.733 90.5492 141.522 91.0364C142.31 91.5236 142.873 92.3039 143.087 93.2057L144.957 101.144C145.077 101.657 145.08 102.192 144.964 102.707C144.849 103.222 144.619 103.704 144.291 104.117C143.963 104.531 143.545 104.865 143.07 105.094C142.595 105.324 142.074 105.443 141.546 105.443V105.443Z" fill="#3F3D56"/>
    <path d="M291.315 104.974C290.787 104.974 290.266 104.855 289.79 104.626C289.315 104.396 288.898 104.062 288.57 103.649C288.242 103.235 288.011 102.753 287.896 102.238C287.781 101.723 287.783 101.188 287.904 100.675L289.774 92.7368C289.987 91.835 290.55 91.0547 291.339 90.5675C292.127 90.0803 293.077 89.926 293.979 90.1385C294.882 90.351 295.663 90.9129 296.151 91.7007C296.639 92.4886 296.794 93.4379 296.583 94.3402L294.712 102.278C294.532 103.044 294.098 103.726 293.482 104.216C292.865 104.705 292.102 104.972 291.315 104.974V104.974Z" fill="#3F3D56"/>
    <path d="M115.742 128.873C114.591 128.874 113.468 128.519 112.525 127.859L108.599 125.111C107.861 124.594 107.258 123.907 106.841 123.107C106.425 122.307 106.207 121.419 106.207 120.517V112.103C106.209 110.414 106.881 108.794 108.076 107.599C109.271 106.405 110.891 105.733 112.581 105.731H118.594C120.284 105.733 121.904 106.405 123.099 107.599C124.294 108.794 124.966 110.414 124.968 112.103V120.6C124.967 121.478 124.759 122.344 124.363 123.128C123.967 123.912 123.393 124.592 122.686 125.114L119.069 127.779C118.105 128.49 116.939 128.874 115.742 128.873V128.873Z" fill="#3F3D56"/>
    <path d="M118.594 159.656H112.581C110.891 159.654 109.271 158.982 108.076 157.787C106.881 156.592 106.209 154.973 106.207 153.283V144.869C106.207 143.968 106.425 143.079 106.841 142.28C107.258 141.48 107.861 140.792 108.599 140.275L112.525 137.528C113.487 136.854 114.636 136.499 115.81 136.514C116.984 136.528 118.124 136.911 119.069 137.607L122.686 140.272C123.393 140.795 123.967 141.475 124.363 142.259C124.759 143.043 124.967 143.908 124.968 144.786V153.283C124.966 154.973 124.294 156.592 123.099 157.787C121.904 158.982 120.284 159.654 118.594 159.656V159.656Z" fill="#3F3D56"/>
    <path d="M137.355 142.071H128.939C128.037 142.071 127.149 141.854 126.349 141.437C125.549 141.021 124.861 140.418 124.344 139.68L121.596 135.755C120.922 134.794 120.567 133.645 120.582 132.471C120.596 131.297 120.979 130.157 121.676 129.213L124.341 125.596C124.864 124.89 125.544 124.316 126.328 123.92C127.112 123.524 127.978 123.317 128.857 123.315H137.355C139.045 123.317 140.666 123.989 141.861 125.184C143.056 126.378 143.728 127.998 143.73 129.688V135.699C143.728 137.388 143.056 139.008 141.861 140.203C140.666 141.398 139.045 142.07 137.355 142.071V142.071Z" fill="#3F3D56"/>
    <path d="M101.767 142.071H93.3507C91.6608 142.07 90.0405 141.398 88.8455 140.203C87.6505 139.008 86.9783 137.388 86.9764 135.699V129.688C86.9783 127.998 87.6505 126.378 88.8455 125.184C90.0405 123.989 91.6608 123.317 93.3507 123.315H101.849C102.728 123.317 103.594 123.524 104.378 123.92C105.162 124.316 105.843 124.89 106.365 125.596L109.03 129.213C109.728 130.157 110.11 131.297 110.125 132.471C110.139 133.645 109.784 134.794 109.11 135.755L106.362 139.68C105.845 140.418 105.157 141.021 104.357 141.437C103.557 141.854 102.669 142.071 101.767 142.071V142.071Z" fill="#3F3D56"/>
    <path d="M317.038 119.564C322.996 119.564 327.826 114.735 327.826 108.779C327.826 102.822 322.996 97.9937 317.038 97.9937C311.08 97.9937 306.25 102.822 306.25 108.779C306.25 114.735 311.08 119.564 317.038 119.564Z" fill="#3F3D56"/>
    <path d="M340.959 144.416C346.917 144.416 351.747 139.587 351.747 133.631C351.747 127.675 346.917 122.846 340.959 122.846C335.001 122.846 330.171 127.675 330.171 133.631C330.171 139.587 335.001 144.416 340.959 144.416Z" fill="#3F3D56"/>
    <path d="M317.038 167.862C322.996 167.862 327.826 163.033 327.826 157.077C327.826 151.12 322.996 146.292 317.038 146.292C311.08 146.292 306.25 151.12 306.25 157.077C306.25 163.033 311.08 167.862 317.038 167.862Z" fill="#3F3D56"/>
    <path d="M293.117 143.947C299.075 143.947 303.905 139.119 303.905 133.162C303.905 127.206 299.075 122.377 293.117 122.377C287.16 122.377 282.33 127.206 282.33 133.162C282.33 139.119 287.16 143.947 293.117 143.947Z" fill="#3F3D56"/>
    <path d="M340.959 140.665C339.568 140.665 338.207 140.252 337.05 139.479C335.893 138.706 334.992 137.608 334.459 136.323C333.927 135.037 333.787 133.623 334.059 132.259C334.33 130.894 335 129.641 335.984 128.657C336.968 127.674 338.222 127.004 339.587 126.733C340.951 126.461 342.366 126.6 343.651 127.133C344.937 127.665 346.036 128.567 346.809 129.723C347.582 130.88 347.995 132.24 347.995 133.631C347.993 135.496 347.251 137.284 345.932 138.602C344.613 139.921 342.824 140.663 340.959 140.665V140.665ZM340.959 127.535C339.753 127.535 338.574 127.893 337.572 128.563C336.569 129.232 335.787 130.184 335.326 131.298C334.864 132.412 334.744 133.638 334.979 134.82C335.214 136.003 335.795 137.089 336.648 137.941C337.5 138.794 338.587 139.375 339.77 139.61C340.952 139.845 342.178 139.724 343.293 139.263C344.407 138.802 345.359 138.02 346.029 137.018C346.699 136.015 347.057 134.837 347.057 133.631C347.055 132.015 346.412 130.465 345.269 129.323C344.126 128.18 342.576 127.537 340.959 127.535V127.535Z" fill="#E6E6E6"/>
    <path d="M324.577 114.012L310.438 113.812L317.681 101.67L324.577 114.012ZM312.076 112.897L322.965 113.051L317.654 103.546L312.076 112.897Z" fill="#E6E6E6"/>
    <path d="M298.746 138.789H287.489V127.535H298.746V138.789ZM288.427 137.851H297.808V128.473H288.427V137.851Z" fill="#E6E6E6"/>
    <path d="M322.86 161.919L317.703 156.773L322.25 152.235L321.587 151.571L317.038 156.11L312.489 151.571L311.827 152.235L316.374 156.773L311.217 161.919L311.88 162.583L317.038 157.435L322.197 162.583L322.86 161.919Z" fill="#E6E6E6"/>
    <path d="M115.726 34.6243C114.335 34.6243 112.974 34.2118 111.817 33.4389C110.66 32.666 109.759 31.5675 109.226 30.2823C108.694 28.9971 108.554 27.5828 108.826 26.2184C109.097 24.854 109.767 23.6007 110.751 22.6171C111.735 21.6334 112.989 20.9635 114.353 20.6921C115.718 20.4207 117.133 20.56 118.418 21.0924C119.704 21.6247 120.803 22.5262 121.576 23.6829C122.349 24.8396 122.762 26.1995 122.762 27.5906C122.759 29.4554 122.018 31.2432 120.699 32.5619C119.38 33.8805 117.591 34.6222 115.726 34.6243V34.6243ZM115.726 21.4948C114.52 21.4948 113.341 21.8523 112.338 22.5221C111.336 23.1919 110.554 24.144 110.093 25.2578C109.631 26.3717 109.51 27.5974 109.746 28.7799C109.981 29.9624 110.562 31.0485 111.414 31.901C112.267 32.7536 113.354 33.3341 114.536 33.5694C115.719 33.8046 116.945 33.6838 118.059 33.2225C119.174 32.7611 120.126 31.9798 120.796 30.9773C121.466 29.9748 121.824 28.7963 121.824 27.5906C121.822 25.9745 121.179 24.425 120.036 23.2822C118.893 22.1394 117.343 21.4966 115.726 21.4948V21.4948Z" fill="#E6E6E6"/>
    <path d="M99.8127 22.9764L85.6739 22.7765L92.9167 10.6349L99.8127 22.9764ZM87.3118 21.8616L98.2014 22.0157L92.8901 12.5106L87.3118 21.8616Z" fill="#E6E6E6"/>
    <path d="M79.0028 40.0831H67.7459V28.8292H79.0028V40.0831ZM68.684 39.1453H78.0647V29.767H68.684V39.1453Z" fill="#E6E6E6"/>
    <path d="M89.1838 61.0359L84.0268 55.8901L88.5745 51.3524L87.9118 50.6885L83.3626 55.2275L78.8134 50.6885L78.1507 51.3524L82.6985 55.8901L77.5414 61.0359L78.2042 61.6999L83.3626 56.5527L88.5211 61.6999L89.1838 61.0359Z" fill="#E6E6E6"/>
    <path opacity="0.2" d="M406.859 161.531L388.653 175.23L409.204 166.22L406.859 161.531Z" fill="black"/>
    <path d="M70.0913 178.412L47.1085 179.35L44.2943 163.876L63.9938 157.78L70.0913 178.412Z" fill="#A0616A"/>
    <path d="M61.6414 140.488L56.5153 135.27L62.8006 125.662L73.5584 107.76C73.2069 106.988 73.0979 106.129 73.2458 105.294C73.3937 104.46 73.7915 103.69 74.3866 103.086C74.9818 102.483 75.7462 102.074 76.5787 101.914C77.4112 101.754 78.2727 101.851 79.0491 102.191C79.8255 102.531 80.4803 103.099 80.9268 103.82C81.3733 104.54 81.5905 105.379 81.5498 106.226C81.509 107.072 81.2121 107.886 80.6983 108.561C80.1846 109.235 79.4783 109.737 78.6728 110.001L69.7931 129.114L61.6414 140.488Z" fill="#A0616A"/>
    <path d="M55.9629 152.401C55.361 153.333 54.5034 154.072 53.4927 154.529C52.4819 154.987 51.3608 155.144 50.2632 154.981C49.2185 154.858 48.2326 154.432 47.4264 153.757C46.6203 153.081 46.029 152.185 45.7252 151.178C45.5014 150.464 45.4363 149.709 45.5343 148.966C45.6322 148.224 45.891 147.512 46.2926 146.88C49.7218 141.1 56.0465 133.468 56.1099 133.392L56.2107 133.27L66.8781 135.581L55.9629 152.401Z" fill="#6C63FF"/>
    <path d="M64.6134 280.302L70.9871 280.302L74.019 255.724L64.612 255.724L64.6134 280.302Z" fill="#A0616A"/>
    <path d="M62.9873 278.222L75.5396 278.222H75.5401C77.6616 278.222 79.6962 279.064 81.1963 280.564C82.6964 282.064 83.5393 284.098 83.5394 286.219V286.479L62.9877 286.479L62.9873 278.222Z" fill="#2F2E41"/>
    <path d="M14.9847 277.544L21.2867 278.496L27.9601 254.648L19.6985 253.242L14.9847 277.544Z" fill="#A0616A"/>
    <path d="M13.6882 275.244L26.0995 277.12L26.1 277.12C28.1977 277.437 30.0834 278.574 31.3424 280.281C32.6014 281.988 33.1307 284.125 32.8137 286.222L32.7748 286.479L12.4539 283.409L13.6882 275.244Z" fill="#2F2E41"/>
    <path d="M46.1703 174.661L68.215 170.91L75.0359 184.966L75.2959 276.702L63.1971 276.627L58.1395 202.377L25.9062 270.985L12.9089 269.426L41.243 195.881C41.243 195.881 39.6833 182.887 44.6223 176.39L46.1703 174.661Z" fill="#2F2E41"/>
    <path d="M37.9864 146.967C37.6495 145.956 37.6137 144.868 37.8834 143.836C38.1531 142.804 38.7167 141.873 39.5056 141.155L42.6386 138.308L51.471 136.821L56.9935 135.817L65.8698 161.531L44.3115 171.433C42.4195 171.025 41.6638 169.99 42.7647 167.933L37.9864 146.967Z" fill="#6C63FF"/>
    <path d="M57.7716 155.644L63.9387 151.709L72.0412 159.845L87.3358 174.07C88.1633 173.886 89.0272 173.957 89.8133 174.274C90.5994 174.592 91.2707 175.14 91.7382 175.847C92.2058 176.554 92.4477 177.386 92.4319 178.234C92.416 179.081 92.1433 179.904 91.6496 180.593C91.156 181.282 90.4648 181.805 89.6674 182.092C88.87 182.38 88.004 182.419 87.184 182.204C86.364 181.989 85.6286 181.53 85.0751 180.888C84.5216 180.246 84.176 179.451 84.0842 178.609L67.2169 165.97L57.7716 155.644Z" fill="#A0616A"/>
    <path d="M47.288 147.625C46.5007 146.844 45.955 145.852 45.7164 144.769C45.4777 143.686 45.5562 142.557 45.9423 141.517C46.2793 140.521 46.8998 139.645 47.7277 138.996C48.5555 138.347 49.5547 137.954 50.6028 137.865C51.3484 137.794 52.1005 137.886 52.8067 138.136C53.5129 138.385 54.1562 138.786 54.6917 139.309C59.6382 143.859 65.7994 151.624 65.8609 151.702L65.9588 151.825L61.491 161.781L47.288 147.625Z" fill="#6C63FF"/>
    <path d="M47.5947 133.692C52.9494 133.692 57.2901 129.353 57.2901 123.999C57.2901 118.646 52.9494 114.306 47.5947 114.306C42.2401 114.306 37.8994 118.646 37.8994 123.999C37.8994 129.353 42.2401 133.692 47.5947 133.692Z" fill="#A0616A"/>
    <path d="M39.7452 137.808C38.2417 137.808 36.7396 137.716 35.2472 137.534L35.0426 137.509L33.4809 129.033C32.8185 125.439 33.557 121.729 35.5448 118.663C37.5325 115.597 40.6187 113.408 44.17 112.545C44.4069 112.485 44.6559 112.492 44.8894 112.564C45.1229 112.636 45.332 112.772 45.4936 112.955L45.866 112.825C47.292 112.328 48.802 112.117 50.3098 112.203C51.8175 112.289 53.2935 112.671 54.6535 113.328C56.0134 113.985 57.2307 114.902 58.2358 116.029C59.2409 117.156 60.0142 118.47 60.5114 119.896L60.6037 120.16L58.1182 121.027C57.3437 121.297 56.6392 121.736 56.0559 122.313C55.4725 122.889 55.025 123.588 54.746 124.359C54.4669 125.13 54.3633 125.954 54.4426 126.77C54.5219 127.586 54.7822 128.374 55.2045 129.077L57.7458 133.307L57.4753 133.442C51.9903 136.27 45.9162 137.765 39.7452 137.808V137.808Z" fill="#2F2E41"/>
    <path d="M372.835 178.369C372.947 177.827 373.177 177.317 373.508 176.873C373.839 176.429 374.263 176.064 374.751 175.802C375.238 175.54 375.777 175.388 376.33 175.357C376.883 175.326 377.435 175.417 377.949 175.622L386.767 165.462L388.653 172.193L379.99 180.809C379.588 181.65 378.891 182.313 378.031 182.674C377.172 183.034 376.211 183.067 375.328 182.767C374.446 182.466 373.705 181.852 373.246 181.042C372.786 180.231 372.64 179.28 372.835 178.369H372.835Z" fill="#FFB6B6"/>
    <path d="M412.183 133.701L415.795 133.506L416.339 135.801C416.339 135.801 416.286 138.741 412.992 144.851C409.698 150.961 384.177 178.165 384.177 178.165L378.65 171.894L392.311 157.826L400.584 143.082L412.183 133.701Z" fill="#6C63FF"/>
    <path d="M0.584892 287H429.415C429.57 287 429.719 286.938 429.829 286.829C429.938 286.719 430 286.57 430 286.415C430 286.26 429.938 286.111 429.829 286.002C429.719 285.892 429.57 285.831 429.415 285.831H0.584892C0.42977 285.831 0.281003 285.892 0.171315 286.002C0.0616274 286.111 0 286.26 0 286.415C0 286.57 0.0616274 286.719 0.171315 286.829C0.281003 286.938 0.42977 287 0.584892 287Z" fill="#CCCCCC"/>
  </g>
  <defs>
    <clipPath id="clip0_8_2">
      <rect width="430" height="287" fill="white"/>
    </clipPath>
  </defs>
</svg>
